<?xml version="1.0" encoding="UTF-8"?>
<svg xmlns="http://www.w3.org/2000/svg" width="158" height="35" viewBox="0 0 158 35" fill="none">
  <path d="M59.8679 17.0901V16.9545C60.6734 16.8188 61.4218 16.3294 62.1153 15.4887C62.8088 14.648 63.1544 13.5674 63.1544 12.2495C63.1544 10.3403 62.5514 8.80429 61.3431 7.64621C60.1348 6.48571 58.5261 5.90667 56.5123 5.90667H45.7471V28.7533H56.5456C58.9599 28.7533 60.7711 28.1791 61.9795 27.0307C63.1878 25.8823 63.7907 24.3414 63.7907 22.4105C63.7907 20.8866 63.3951 19.6534 62.5991 18.711C61.8055 17.7685 60.8951 17.2282 59.8655 17.0901H59.8679ZM50.311 9.86062H56.0118C56.772 9.86062 57.4155 10.1102 57.9398 10.6117C58.4665 11.1108 58.7287 11.7479 58.7287 12.5208C58.7287 13.4075 58.4546 14.1174 57.9065 14.6528C57.3583 15.1858 56.6267 15.4548 55.7091 15.4548H50.311V9.86304V9.86062ZM58.3426 24.0289C57.8183 24.5401 57.0509 24.7969 56.0451 24.7969H50.311V19.1374H56.212C57.0842 19.1374 57.7897 19.3942 58.3259 19.9054C58.8621 20.4166 59.1315 21.1046 59.1315 21.9696C59.1315 22.8345 58.8693 23.5201 58.3426 24.0313V24.0289ZM116.292 13.8339C114.535 12.1622 112.407 11.3288 109.902 11.3288C107.397 11.3288 105.195 12.1647 103.429 13.8339C101.663 15.5056 100.779 17.6474 100.779 20.2615C100.779 22.8757 101.663 25.0174 103.429 26.6891C105.195 28.3608 107.354 29.1942 109.902 29.1942C112.45 29.1942 114.537 28.3584 116.292 26.6891C118.048 25.0174 118.925 22.8757 118.925 20.2615C118.925 17.6474 118.048 15.5056 116.292 13.8339ZM113.189 23.9272C112.226 24.8696 111.132 25.342 109.902 25.342C108.672 25.342 107.504 24.8769 106.532 23.9441C105.56 23.0114 105.074 21.7854 105.074 20.2615C105.074 18.7376 105.56 17.5117 106.532 16.5789C107.504 15.6462 108.629 15.181 109.902 15.181C111.175 15.181 112.228 15.6534 113.189 16.5959C114.149 17.5383 114.63 18.7618 114.63 20.2615C114.63 21.7612 114.149 22.9847 113.189 23.9272ZM130.632 11.2246C128.463 11.2246 126.706 11.9078 125.365 13.2694L124.735 13.8848L122.621 11.7358H120.937V28.7509H125.365V21.2161C125.365 17.3058 126.752 15.3506 129.523 15.3506C130.553 15.3506 131.373 15.714 131.988 16.4408C132.603 17.1677 132.91 18.1343 132.91 19.3384V28.7509H137.338V18.3839C137.338 16.2688 136.723 14.5487 135.493 13.2186C134.264 11.8885 132.643 11.2246 130.629 11.2246H130.632ZM152.672 4.20105V13.1023C151.197 11.8521 149.352 11.2271 147.138 11.2271C144.924 11.2271 143.029 12.0847 141.385 13.8024C139.74 15.5178 138.921 17.6716 138.921 20.2639C138.921 22.8563 139.736 25.0029 141.368 26.7085C143.001 28.4141 144.924 29.2669 147.138 29.2669C147.684 29.2669 148.206 29.2282 148.709 29.153C150.482 28.8841 152.11 27.9925 153.377 26.7036L155.396 28.7557H157.1V4.20105H152.672ZM151.228 23.9272C150.267 24.8696 149.159 25.342 147.908 25.342C146.545 25.342 145.42 24.8817 144.536 23.9611C143.651 23.0404 143.21 21.8072 143.21 20.2615C143.21 18.7158 143.651 17.4778 144.536 16.545C145.42 15.6122 146.542 15.1471 147.908 15.1471C149.159 15.1471 150.267 15.6244 151.228 16.5789C152.188 17.5335 152.67 18.7618 152.67 20.2615C152.67 21.7612 152.188 22.9847 151.228 23.9272ZM73.9124 11.2246C71.4744 11.2246 69.4224 12.0702 67.7565 13.7661C66.0906 15.4596 65.2564 17.6256 65.2564 20.2615C65.2564 22.8975 66.0834 25.0586 67.7398 26.74C69.3938 28.4214 71.4291 29.2645 73.8457 29.2645C75.7237 29.2645 77.3682 28.8211 78.7767 27.9344C79.9373 27.2027 80.8596 26.1827 81.5508 24.8793L78.0045 23.1616C77.1322 24.6613 75.7452 25.4123 73.8457 25.4123C72.8161 25.4123 71.9176 25.0537 71.1455 24.339C70.3733 23.6219 69.8776 22.6625 69.6536 21.4584H82.3992V19.9248C82.311 17.3784 81.4435 15.2924 79.7991 13.6668C78.1546 12.0411 76.1932 11.2295 73.9124 11.2295V11.2246ZM69.787 18.2845C70.0325 17.2839 70.552 16.5111 71.3457 15.966C72.1393 15.4208 72.9949 15.1471 73.9124 15.1471C74.83 15.1471 75.6784 15.4087 76.3958 15.9321C77.1108 16.4554 77.6041 17.2403 77.871 18.2845H69.787ZM96.6297 11.6607L91.663 23.29L86.6962 11.6607H81.8153L88.1047 26.3887H90.3402L86.7916 34.6963H91.6725L101.508 11.6583H96.6273L96.6297 11.6607Z" fill="#005566"></path>
  <path d="M7.63379 13.1313L10.7201 16.2688C11.1705 13.5262 13.3059 11.3554 16.0038 10.8975L12.9175 7.76007C10.5652 8.81639 8.67289 10.7401 7.63379 13.1313Z" fill="#E0CBA6"></path>
  <path d="M12.9175 26.9362L16.0038 23.7987C13.3059 23.3408 11.1705 21.17 10.7201 18.4274L7.63379 21.5649C8.67289 23.9562 10.5652 25.8798 12.9175 26.9362Z" fill="#E0CBA6"></path>
  <path d="M19.5186 3.93692H30.2575V14.8539L34.1303 10.9169V-6.10352e-05H23.3914L19.5186 3.93692Z" fill="#E0CBA6"></path>
  <path d="M21.2133 7.76007L18.127 10.8975C20.8248 11.3554 22.9602 13.5262 23.4106 16.2688L26.497 13.1313C25.4579 10.7401 23.5656 8.81639 21.2133 7.76007Z" fill="#E0CBA6"></path>
  <path d="M26.497 21.5649L23.4106 18.4274C22.9602 21.17 20.8248 23.3408 18.127 23.7987L21.2133 26.9362C23.5656 25.8798 25.4579 23.9562 26.497 21.5649Z" fill="#E0CBA6"></path>
  <path d="M30.2575 19.8423V30.7593H19.5186L23.3914 34.6963H34.1303V23.7793L30.2575 19.8423Z" fill="#E0CBA6"></path>
  <path d="M14.6118 30.7593H3.8728V19.8423L0 23.7793V34.6963H10.739L14.6118 30.7593Z" fill="#E0CBA6"></path>
  <path d="M3.8728 14.8539V3.93698H14.6118L10.739 0H0V10.917L3.8728 14.8539Z" fill="#E0CBA6"></path>
</svg>
