<?xml version="1.0" encoding="UTF-8" standalone="no"?>
<svg
   id="Layer_1"
   data-name="Layer 1"
   viewBox="0 0 341.16043 340.43002"
   version="1.1"
   width="341.16043"
   height="340.43002"
   inkscape:version="1.3.2 (091e20e, 2023-11-25)"
   xmlns:inkscape="http://www.inkscape.org/namespaces/inkscape"
   xmlns:sodipodi="http://sodipodi.sourceforge.net/DTD/sodipodi-0.dtd"
   xmlns="http://www.w3.org/2000/svg"
   xmlns:svg="http://www.w3.org/2000/svg">
  <sodipodi:namedview
     id="namedview9"
     bordercolor="#666666"
     borderopacity="1.0"
     inkscape:showpageshadow="2"
     inkscape:pageopacity="0.0"
     inkscape:pagecheckerboard="0"
     inkscape:deskcolor="#d1d1d1"
     inkscape:zoom="1.2560782"
     inkscape:cx="224.50831"
     inkscape:cy="179.12897"
     inkscape:window-width="1728"
     inkscape:window-height="1051"
     inkscape:window-x="0"
     inkscape:window-y="38"
     inkscape:window-maximized="0"
     inkscape:current-layer="Layer_1" />

  <path
     d="m 305.02915,66.136829 c -8.95,4.16 -17.55,9.4 -25.92,14.6 -4.14,2.58 -19.43,14.29 -22.06,15.02 -2.79,0.78 -10.68,-1.51 -14.47,-1.66 -24.75,-0.93 -42.5,6.210001 -63.07,19.030001 -32.94,20.52 -57.45,52.04 -76.98,85.02 l 13.77,-38.23 c 7.94,-29.55 26.98,-79.300001 -10.59,-95.940001 -16.310002,-7.22 -31.480002,-4.89 -45.150002,6.21 -1.77,1.43 -14,13.31 -12.52,14.97 14.68,-12.9 35.6,-23.68 53.470002,-9.98 20.03,15.36 13.66,36.770001 7.79,57.740001 -14.430002,51.57 -43.080002,97.38 -71.280002,142.23 -2.09,0.31 -3.22,-1.69 -4.4,-3.08 -50.55,-59.67 -41.2499998,-158.07 8.9,-214.930001 70.030002,-79.4 198.980002,-75.72 262.510002,9 z"
     id="path2"
     style="fill:#ffd230" />
  <path
     d="m 132.10915,336.08683 c -2.49,-2.93 17.13,-59.31 20.17,-67.18 23.62,-61.12 58.74,-117.44 107.7,-161.21 44.97,9.41 65.24,61.1 51.42,102.34 -0.57,1.71 -0.94,3.21 1.13,1.13 1.98,-5.15 4.32,-9.96 5.62,-15.38 9.47,-39.32 -8.73,-82.38 -48.11,-96.130001 0.01,-1.92 26.48,-21.31 30.25,-23.73 2.02,-1.3 7.72,-5.67 9.76,-4.33 15.53,23 26.49,49.430001 29.83,77.200001 14.21,118.27 -92.01,213.38 -207.78,187.29 z"
     id="path3"
     style="fill:#ffd230" />
  <path
     d="m 93.019148,320.15683 c -1.44,1.26 -10.61,-4.82 -12.51,-5.98 -2.83,-1.73 -18.68,-12.3 -18.35,-14.34 26.06,-37.57 46.580002,-79.22 76.870002,-113.68 l -46.000002,134 z"
     id="path4"
     style="fill:#ffd230" />
  <path
     d="m 242.02915,106.16683 c -27.09,21.91 -49.08,48.07 -68.82,76.67 l -28.17,43.31 c 9.94,-49.94 37.96,-117.07 96.99,-119.99 z"
     id="path5"
     style="fill:#ffd230" />
</svg>