<?xml version="1.0" encoding="UTF-8" standalone="no"?>
<!-- Created with Inkscape (http://www.inkscape.org/) -->

<svg
   xmlns:dc="http://purl.org/dc/elements/1.1/"
   xmlns:cc="http://creativecommons.org/ns#"
   xmlns:rdf="http://www.w3.org/1999/02/22-rdf-syntax-ns#"
   xmlns:svg="http://www.w3.org/2000/svg"
   xmlns="http://www.w3.org/2000/svg"
   xmlns:sodipodi="http://sodipodi.sourceforge.net/DTD/sodipodi-0.dtd"
   xmlns:inkscape="http://www.inkscape.org/namespaces/inkscape"
   width="91.549553"
   height="77.019096"
   viewBox="0 0 24.222486 20.377969"
   version="1.1"
   id="svg4769"
   inkscape:version="0.92.4 (5da689c313, 2019-01-14)"
   sodipodi:docname="wex old.svg">
  <defs
     id="defs4763" />
  <sodipodi:namedview
     id="base"
     pagecolor="#ffffff"
     bordercolor="#666666"
     borderopacity="1.0"
     inkscape:pageopacity="0.0"
     inkscape:pageshadow="2"
     inkscape:zoom="10.905155"
     inkscape:cx="45.274768"
     inkscape:cy="38.009504"
     inkscape:document-units="mm"
     inkscape:current-layer="layer1"
     showgrid="false"
     fit-margin-top="0"
     fit-margin-left="0"
     fit-margin-right="0"
     fit-margin-bottom="0"
     units="px"
     inkscape:window-width="1920"
     inkscape:window-height="1001"
     inkscape:window-x="-9"
     inkscape:window-y="-9"
     inkscape:window-maximized="1" />
  <metadata
     id="metadata4766">
    <rdf:RDF>
      <cc:Work
         rdf:about="">
        <dc:format>image/svg+xml</dc:format>
        <dc:type
           rdf:resource="http://purl.org/dc/dcmitype/StillImage" />
        <dc:title></dc:title>
      </cc:Work>
    </rdf:RDF>
  </metadata>
  <g
     inkscape:label="Layer 1"
     inkscape:groupmode="layer"
     id="layer1"
     transform="translate(-150.55081,-368.32157)">
    <g
       transform="translate(-321.11253,-180.26676)"
       id="g4747">
      <path
         d="m 495.72585,559.06601 c -0.0282,-0.26599 -0.12347,-0.57467 -0.27869,-0.91546 l -3.81706,-8.04121 c -0.16581,-0.33585 -0.34572,-0.58773 -0.53269,-0.77929 -0.20109,-0.19509 -0.43039,-0.34643 -0.69145,-0.44979 -0.2928,-0.11536 -0.59619,-0.16863 -0.89958,-0.1584 -0.32103,0.006 -0.58209,0.0684 -0.80434,0.15663 l -0.0917,0.042 -15.4058,7.30744 c -0.33514,0.16475 -0.60325,0.34361 -0.79375,0.53058 -0.19756,0.1972 -0.34925,0.42863 -0.45509,0.68792 -0.11641,0.2921 -0.16933,0.59443 -0.15875,0.90064 0.004,0.31926 0.0565,0.58102 0.16228,0.8008 l 0.0247,0.073 3.89819,8.20314 c 0.16228,0.3362 0.34219,0.60466 0.52917,0.79657 0.19755,0.19544 0.43039,0.34749 0.68791,0.45156 0.29281,0.11606 0.5962,0.17004 0.90311,0.16087 0.3175,-0.005 0.57856,-0.0582 0.80081,-0.16228 l 15.73036,-7.45702 0.004,-0.004 0.0212,-0.0102 c 0.22225,-0.10407 0.42686,-0.2727 0.635,-0.51612 0.20108,-0.23071 0.34925,-0.49918 0.4445,-0.79869 0.0847,-0.26634 0.11641,-0.54151 0.0882,-0.81844"
         style="fill:#d11a37;fill-opacity:1;fill-rule:nonzero;stroke:none;stroke-width:0.35277778"
         id="path4355"
         inkscape:connector-curvature="0" />
      <path
         d="m 474.19226,560.29933 c 0.0353,0.12524 0.0847,0.24977 0.14817,0.37112 0.0635,0.12453 0.13758,0.24201 0.21872,0.3489 0.20814,0.26388 0.47272,0.47237 0.77964,0.62018 0.21872,0.10936 0.52564,0.18803 0.86078,0.21414 l 1.04422,-1.33456 0.06,0.13617 c 0.36336,0.72073 1.01247,1.16241 1.78506,1.2125 l 0.0917,0.003 c 0.24694,0 0.51505,-0.0653 0.81139,-0.20002 0.28927,-0.12489 0.5468,-0.30763 0.76552,-0.54293 0.19403,-0.2099 0.3422,-0.45155 0.44098,-0.71931 0.0882,-0.25929 0.13758,-0.58632 0.14464,-0.97014 v -3.7779 h -1.30528 v 3.74827 c 0,0.31538 -0.0353,0.53516 -0.10231,0.67239 -0.15169,0.29316 -0.40569,0.44803 -0.73378,0.44803 -0.2928,0 -0.52211,-0.12594 -0.68086,-0.3743 -0.0706,-0.1023 -0.11289,-0.2159 -0.13052,-0.3369 -0.0176,-0.10972 -0.0282,-0.25506 -0.0282,-0.44238 v -3.71511 h -1.30527 v 3.70558 c 0,0.30762 -0.0317,0.52881 -0.0917,0.67592 -0.0705,0.14993 -0.17286,0.26917 -0.31397,0.35701 -0.127,0.0861 -0.27517,0.13018 -0.43744,0.13018 -0.29986,0 -0.80081,-0.127 -0.8255,-0.97861 0,0 -0.004,-0.26141 -0.004,-0.32526 v -3.56482 h -0.98778 l -0.32455,0.15311 v 3.56693 c 0,0.19968 0.0106,0.36795 0.0317,0.49918 0.0176,0.14288 0.0459,0.28399 0.0882,0.41981"
         style="fill:#ffffff;fill-opacity:1;fill-rule:nonzero;stroke:none;stroke-width:0.35277778"
         id="path4359"
         inkscape:connector-curvature="0" />
      <path
         d="m 487.05807,559.49076 c -0.25753,0.0444 -0.44803,0.16792 -0.63147,0.3369 -0.0953,0.12947 -0.20461,0.24695 -0.32809,0.34996 l -0.0141,0.0169 0.004,-0.008 c -0.33161,0.27411 -0.75847,0.43286 -1.22414,0.43886 -0.51505,0.007 -0.9913,-0.22261 -1.3335,-0.54046 l -1.03716,0.46743 0.68791,-0.89076 c -0.11289,-0.2286 -0.254,-0.57679 -0.254,-0.96944 0.007,-1.06821 0.92428,-1.96038 1.93675,-1.9184 0.36689,0.0148 0.58561,0.0536 0.87842,0.21167 l -2.03906,2.60702 4.13809,-1.96038 c -0.39511,-1.23367 -1.63689,-2.11808 -2.97745,-2.11808 -1.75683,0 -3.17853,1.42275 -3.17853,3.17817 0,1.75472 1.4217,3.18876 3.17853,3.17818 1.4852,-0.01 2.68111,-1.04422 3.02684,-2.20345 -0.0635,-0.0392 -0.31045,-0.26846 -0.83256,-0.17639"
         style="fill:#ffffff;fill-opacity:1;fill-rule:nonzero;stroke:none;stroke-width:0.35277778"
         id="path4363"
         inkscape:connector-curvature="0" />
      <path
         d="m 486.98399,561.87166 h 1.67217 l 1.65805,-2.12196 1.66159,2.12196 h 1.17475 l 0.36336,-0.1718 -2.36009,-3.02049 2.3742,-3.03671 h -1.6757 l -1.53811,1.96603 -1.53458,-1.96603 h -1.6757 l 2.3742,3.03671 z"
         style="fill:#ffffff;fill-opacity:1;fill-rule:nonzero;stroke:none;stroke-width:0.35277778"
         id="path4367"
         inkscape:connector-curvature="0" />
    </g>
  </g>
</svg>
